<?xml version="1.0" encoding="UTF-8"?>
<!DOCTYPE svg PUBLIC "-//W3C//DTD SVG 1.1//EN" "http://www.w3.org/Graphics/SVG/1.1/DTD/svg11.dtd">
<svg xmlns="http://www.w3.org/2000/svg" version="1.1" width="1563px" height="1563px" style="shape-rendering:geometricPrecision; text-rendering:geometricPrecision; image-rendering:optimizeQuality; fill-rule:evenodd; clip-rule:evenodd" xmlns:xlink="http://www.w3.org/1999/xlink">
<g><path style="opacity:0.958" fill="#fefffe" d="M 997.5,699.5 C 999.857,699.337 1002.19,699.503 1004.5,700C 1017.87,711.71 1031.54,723.044 1045.5,734C 1048.25,736.408 1050.58,739.074 1052.5,742C 1049.49,746.342 1045.99,746.509 1042,742.5C 1041.82,755.545 1041.32,768.545 1040.5,781.5C 1031.17,782.833 1021.83,782.833 1012.5,781.5C 1011.69,771.547 1011.19,761.547 1011,751.5C 1005.47,743.126 999.134,742.46 992,749.5C 991.027,751.392 990.36,753.392 990,755.5C 989.5,764.494 989.334,773.494 989.5,782.5C 979.917,782.818 970.417,782.485 961,781.5C 960.667,768.5 960.333,755.5 960,742.5C 957.291,745.368 954.124,746.035 950.5,744.5C 948.993,742.031 949.327,739.865 951.5,738C 967.024,725.302 982.357,712.469 997.5,699.5 Z"/></g>
<g><path style="opacity:0.958" fill="#fefffe" d="M 427.5,700.5 C 448.811,699.31 463.478,708.477 471.5,728C 471.355,728.772 471.022,729.439 470.5,730C 463.167,730.667 455.833,730.667 448.5,730C 437.797,719.018 426.964,718.851 416,729.5C 408.442,744.524 412.275,755.357 427.5,762C 435.136,763.175 441.47,760.842 446.5,755C 441.582,754.805 436.749,754.305 432,753.5C 431.196,748.249 431.363,743.082 432.5,738C 445.167,737.333 457.833,737.333 470.5,738C 471.49,752.421 471.824,766.921 471.5,781.5C 465.491,781.666 459.491,781.499 453.5,781C 452.773,779.601 452.273,778.101 452,776.5C 435.364,786.256 419.197,785.423 403.5,774C 387.632,759.451 384.132,742.284 393,722.5C 401.075,709.717 412.575,702.383 427.5,700.5 Z"/></g>
<g><path style="opacity:0.963" fill="#fefffe" d="M 538.5,702.5 C 546.42,702.185 554.253,702.518 562,703.5C 562.333,720.5 562.667,737.5 563,754.5C 566.616,762.155 572.45,764.321 580.5,761C 582.81,759.363 584.31,757.196 585,754.5C 585.181,737.456 585.681,720.456 586.5,703.5C 594.167,702.167 601.833,702.167 609.5,703.5C 609.833,704.167 610.167,704.833 610.5,705.5C 609.681,722.456 609.181,739.456 609,756.5C 606.806,769.694 599.306,778.194 586.5,782C 575.159,784.564 564.159,783.564 553.5,779C 545.448,773.607 540.615,766.107 539,756.5C 538.5,738.503 538.333,720.503 538.5,702.5 Z"/></g>
<g><path style="opacity:0.972" fill="#fefffe" d="M 678.5,702.5 C 699.076,702.173 719.576,702.507 740,703.5C 741.266,709.595 740.266,715.262 737,720.5C 727.957,734.087 718.79,747.587 709.5,761C 719.833,761.333 730.167,761.667 740.5,762C 741.478,768.41 741.811,774.91 741.5,781.5C 719.5,781.5 697.5,781.5 675.5,781.5C 675.112,776.372 675.612,771.372 677,766.5C 686.833,752.167 696.667,737.833 706.5,723.5C 697.184,722.668 687.851,722.168 678.5,722C 677.185,715.5 677.185,709 678.5,702.5 Z"/></g>
<g><path style="opacity:0.953" fill="#fefffe" d="M 807.5,702.5 C 813.842,702.334 820.175,702.5 826.5,703C 835.026,714.025 843.359,725.192 851.5,736.5C 859.641,725.192 867.974,714.025 876.5,703C 882.859,702.169 889.193,702.336 895.5,703.5C 896.657,729.124 896.824,754.791 896,780.5C 888.225,781.814 880.392,781.814 872.5,780.5C 871.688,769.546 871.188,758.546 871,747.5C 866.711,753.245 862.544,759.079 858.5,765C 853.833,767 849.167,767 844.5,765C 840.456,759.079 836.289,753.245 832,747.5C 831.812,758.546 831.312,769.546 830.5,780.5C 822.833,781.833 815.167,781.833 807.5,780.5C 806.176,754.5 806.176,728.5 807.5,702.5 Z"/></g>
<g><path style="opacity:0.96" fill="#fefffe" d="M 1103.5,702.5 C 1109.84,702.334 1116.18,702.5 1122.5,703C 1131.72,715.223 1140.56,727.723 1149,740.5C 1149.5,727.838 1149.67,715.171 1149.5,702.5C 1157.42,702.185 1165.25,702.518 1173,703.5C 1173.67,729.167 1173.67,754.833 1173,780.5C 1166,781.833 1159,781.833 1152,780.5C 1144,768.5 1136,756.5 1128,744.5C 1127.81,756.546 1127.31,768.546 1126.5,780.5C 1118.61,781.814 1110.77,781.814 1103,780.5C 1102.18,754.428 1102.34,728.428 1103.5,702.5 Z"/></g>
<g><path style="opacity:0.896" fill="#5529aa" d="M 578.5,817.5 C 585.031,816.988 591.364,817.822 597.5,820C 599.585,821.041 601.252,822.541 602.5,824.5C 600.494,827.005 598.328,829.338 596,831.5C 581.068,823.294 573.734,827.627 574,844.5C 576.834,851.666 582.001,854.166 589.5,852C 592.102,851.117 594.269,849.617 596,847.5C 598.935,849.727 600.935,852.394 602,855.5C 592.129,863.791 581.629,864.624 570.5,858C 562.537,850.296 560.37,841.13 564,830.5C 567.162,824.164 571.996,819.831 578.5,817.5 Z"/></g>
<g><path style="opacity:0.907" fill="#5529aa" d="M 632.5,817.5 C 654.652,816.479 663.818,826.812 660,848.5C 653.42,861.031 643.253,865.198 629.5,861C 616.575,854.583 612.409,844.417 617,830.5C 620.258,823.73 625.425,819.397 632.5,817.5 Z M 633.5,827.5 C 646.199,826.251 651.699,831.918 650,844.5C 645.451,852.81 638.951,854.643 630.5,850C 623.884,841.561 624.884,834.061 633.5,827.5 Z"/></g>
<g><path style="opacity:0.905" fill="#5529aa" d="M 892.5,817.5 C 895.833,817.5 899.167,817.5 902.5,817.5C 908.202,832.102 914.202,846.602 920.5,861C 916.833,861.667 913.167,861.667 909.5,861C 908.167,858.333 906.833,855.667 905.5,853C 899.833,852.333 894.167,852.333 888.5,853C 887.438,855.791 886.105,858.457 884.5,861C 881.183,861.498 877.85,861.665 874.5,861.5C 879.943,846.612 885.943,831.945 892.5,817.5 Z M 896.5,831.5 C 898.531,834.554 900.198,837.887 901.5,841.5C 898.554,842.655 895.554,842.821 892.5,842C 894.254,838.659 895.587,835.159 896.5,831.5 Z"/></g>
<g><path style="opacity:0.937" fill="#5529aa" d="M 678.5,818.5 C 687.506,818.334 696.506,818.5 705.5,819C 714.419,823.759 716.919,830.926 713,840.5C 711.16,842.84 708.993,844.84 706.5,846.5C 709.5,851.167 712.5,855.833 715.5,860.5C 711.541,861.66 707.541,861.827 703.5,861C 700.833,857 698.167,853 695.5,849C 693.19,848.503 690.857,848.337 688.5,848.5C 688.5,852.833 688.5,857.167 688.5,861.5C 685.167,861.5 681.833,861.5 678.5,861.5C 678.5,847.167 678.5,832.833 678.5,818.5 Z M 688.5,827.5 C 693.37,827.032 698.036,827.698 702.5,829.5C 705.292,833.098 704.625,835.931 700.5,838C 696.514,838.499 692.514,838.666 688.5,838.5C 688.5,834.833 688.5,831.167 688.5,827.5 Z"/></g>
<g><path style="opacity:0.934" fill="#5529aa" d="M 731.5,818.5 C 740.506,818.334 749.506,818.5 758.5,819C 767.062,822.848 769.895,829.348 767,838.5C 765.558,842.275 763.058,845.108 759.5,847C 762.833,851.667 766.167,856.333 769.5,861C 765.129,861.828 760.795,861.661 756.5,860.5C 753.638,856.805 750.972,852.971 748.5,849C 746.19,848.503 743.857,848.337 741.5,848.5C 741.5,852.833 741.5,857.167 741.5,861.5C 738.167,861.5 734.833,861.5 731.5,861.5C 731.5,847.167 731.5,832.833 731.5,818.5 Z M 741.5,827.5 C 745.514,827.334 749.514,827.501 753.5,828C 758.329,830.837 758.663,834.171 754.5,838C 750.179,838.499 745.846,838.666 741.5,838.5C 741.5,834.833 741.5,831.167 741.5,827.5 Z"/></g>
<g><path style="opacity:0.944" fill="#5529aa" d="M 784.5,818.5 C 795.5,818.5 806.5,818.5 817.5,818.5C 817.5,821.5 817.5,824.5 817.5,827.5C 809.833,827.5 802.167,827.5 794.5,827.5C 794.5,830.167 794.5,832.833 794.5,835.5C 801.167,835.5 807.833,835.5 814.5,835.5C 814.5,838.5 814.5,841.5 814.5,844.5C 807.833,844.5 801.167,844.5 794.5,844.5C 794.5,847.167 794.5,849.833 794.5,852.5C 802.5,852.5 810.5,852.5 818.5,852.5C 818.5,855.5 818.5,858.5 818.5,861.5C 807.167,861.5 795.833,861.5 784.5,861.5C 784.5,847.167 784.5,832.833 784.5,818.5 Z"/></g>
<g><path style="opacity:0.981" fill="#5529aa" d="M 831.5,818.5 C 843.5,818.5 855.5,818.5 867.5,818.5C 867.5,821.5 867.5,824.5 867.5,827.5C 863.167,827.5 858.833,827.5 854.5,827.5C 854.5,838.833 854.5,850.167 854.5,861.5C 851.167,861.5 847.833,861.5 844.5,861.5C 844.5,850.167 844.5,838.833 844.5,827.5C 840.167,827.5 835.833,827.5 831.5,827.5C 831.5,824.5 831.5,821.5 831.5,818.5 Z"/></g>
<g><path style="opacity:0.931" fill="#5529aa" d="M 950.5,818.5 C 953.833,818.5 957.167,818.5 960.5,818.5C 960.667,830.171 960.5,841.838 960,853.5C 957.04,859.776 952.04,862.776 945,862.5C 939.019,862.425 934.186,860.092 930.5,855.5C 932.5,852.833 934.833,850.5 937.5,848.5C 939.504,850.752 942.004,852.086 945,852.5C 946.711,852.561 948.044,851.894 949,850.5C 950.453,839.937 950.953,829.27 950.5,818.5 Z"/></g>
<g><path style="opacity:0.94" fill="#5529aa" d="M 978.5,818.5 C 989.5,818.5 1000.5,818.5 1011.5,818.5C 1011.5,821.5 1011.5,824.5 1011.5,827.5C 1003.83,827.5 996.167,827.5 988.5,827.5C 988.5,830.167 988.5,832.833 988.5,835.5C 995.5,835.5 1002.5,835.5 1009.5,835.5C 1009.5,838.5 1009.5,841.5 1009.5,844.5C 1002.5,844.5 995.5,844.5 988.5,844.5C 988.5,847.167 988.5,849.833 988.5,852.5C 996.5,852.5 1004.5,852.5 1012.5,852.5C 1012.5,855.5 1012.5,858.5 1012.5,861.5C 1001.17,861.5 989.833,861.5 978.5,861.5C 978.5,847.167 978.5,832.833 978.5,818.5 Z"/></g>
</svg>
